<?xml version="1.0" ?><svg enable-background="new 0 0 100 100" id="youtube" version="1.1" viewBox="0 0 100 100" xml:space="preserve" xmlns="http://www.w3.org/2000/svg" xmlns:xlink="http://www.w3.org/1999/xlink"><path d="M50,5c-14.354,0-27.128,6.729-35.368,17.195c1.35-0.275,2.776-0.291,4.211-0.002l54.324,10.919  c5.756,1.157,9.484,6.761,8.327,12.516l-5.278,26.259c-1.157,5.756-6.761,9.484-12.516,8.327L9.376,69.296  c-0.013-0.003-0.026-0.007-0.039-0.01C16.559,84.487,32.05,95,50,95c24.853,0,45-20.147,45-45C95,25.147,74.853,5,50,5z" fill="#E62117"/><path d="M31.121,62.128l23.968-6.382c1.546-0.411,1.949-2.417,0.682-3.393L36.131,37.206  c-1.133-0.874-2.789-0.254-3.071,1.148l-4.327,21.528C28.451,61.285,29.739,62.496,31.121,62.128z" fill="#E62117"/></svg>